PathFileType	4	(X/Y/Z)	Patient4_TMGait_0pt6_02_left_37.trc.trc
DataRate	CameraRate	NumFrames	NumMarkers	Units	OrigDataRate	OrigDataStartFrame	OrigNumFrames
82.352941176470	82.352941176470	4	33	mm	82.352941176470	71	       141
Frame#	Time	Sacral			L.Shoulder			Chest			R.Shoulder			Neck			R.ASIS			L.ASIS			R.Thigh.Superior			R.Thigh.Lateral			R.Thigh.Inferior			R.Patella			L.Thigh.Superior			L.Thigh.Lateral			L.Thigh.Inferior			L.Patella			L.Shank.Superior			L.Shank.Lateral			L.Shank.Inferior			R.Shank.Superior			R.Shank.Lateral			R.Shank.Inferior			R.Heel			R.Midfoot.Superior			R.Midfoot.Lateral			R.Toe			L.Heel			L.Midfoot.Lateral			L.Midfoot.Superior			L.Toe			L.Elbow			L.Wrist			R.Elbow			R.Wrist			
		X1	Y1	Z1	X2	Y2	Z2	X3	Y3	Z3	X4	Y4	Z4	X5	Y5	Z5	X6	Y6	Z6	X7	Y7	Z7	X8	Y8	Z8	X9	Y9	Z9	X10	Y10	Z10	X11	Y11	Z11	X12	Y12	Z12	X13	Y13	Z13	X14	Y14	Z14	X15	Y15	Z15	X16	Y16	Z16	X17	Y17	Z17	X18	Y18	Z18	X19	Y19	Z19	X20	Y20	Z20	X21	Y21	Z21	X22	Y22	Z22	X23	Y23	Z23	X24	Y24	Z24	X25	Y25	Z25	X26	Y26	Z26	X27	Y27	Z27	X28	Y28	Z28	X29	Y29	Z29	X30	Y30	Z30	X31	Y31	Z31	X32	Y32	Z32	X33	Y33	Z33	

71	46.010000000000	850.522047169996	1007.833704721051	455.152023227533	1070.692111341904	1427.990853865764	290.109075286926	1156.881080346094	1344.577863846708	453.461463608151	1070.750361998387	1425.035444194513	622.257363720796	1072.242333418639	1485.089130700968	440.596380321587	1067.976353263673	934.871537246433	583.299033894143	1073.622664177575	970.570906594919	290.996834377732	1141.553302170415	760.342541083745	561.405725803435	1089.006233744162	641.720179945491	632.115486308284	1179.740526900937	604.520141241074	554.097707263607	1209.724150070377	522.683332692248	570.490827998405	1076.710254938311	729.767128622142	339.706867299107	969.567521451420	633.549603693387	268.452996796147	1026.074915253795	540.635471307265	337.262748742184	1011.250964622000	472.480936722557	345.707010679775	978.483379137679	406.050884915408	333.528692776916	879.563518877398	304.681452434101	273.871469327555	907.589729241447	187.398087964501	346.573168929530	1195.175695259498	433.130407094661	581.829062665820	1142.186056965066	318.576070414944	643.688818983348	1214.307013694258	233.730853006384	593.745630505699	1126.134924290919	47.007595734072	563.106334017531	1288.428608184194	120.353353630547	606.805023866133	1209.401556109399	44.474903547738	638.107966167008	1412.804728635849	82.300452609194	633.207363614306	762.131639854212	38.239253846540	375.015821256851	841.168423675022	35.246785628620	299.918202897652	923.153395171783	95.699287850550	332.616781724871	1053.188738766134	40.790722859419	311.801729529213	1013.805478946790	1091.379866839491	149.674751298034	1252.928314548466	1006.763358796515	179.810389578460	938.210541197545	1116.682857702105	759.303455161757	935.651354718308	853.980102265581	772.086620727495	
72	46.022142857143	852.012010370098	1005.772925028807	458.783130912621	1069.450649919013	1426.814509446991	293.634495607816	1156.559664500710	1343.809789594127	456.697567678325	1070.482114282043	1423.755784745802	625.799465750718	1071.272859978974	1483.881072164196	444.106766522188	1069.728839129875	932.764967979267	586.300277599413	1072.853023502504	969.937020268958	292.694122280981	1141.402079099347	756.173710185546	565.719546989455	1085.198102148008	637.416395975633	633.461723356119	1176.656953100717	600.384081802426	556.497488693335	1203.927867546082	518.542120787418	571.123189532506	1077.153839438415	727.996100812767	342.003073462103	969.032263480123	632.360828927562	270.951191862534	1025.439447581209	538.902506412366	339.125116366682	1010.474345883260	470.190779089693	347.277199015421	976.161569099105	404.192258735683	335.116691948115	875.500675331728	304.608927716600	275.147095853502	901.781072455408	186.552590742995	347.156667928922	1190.656725134424	428.794853035493	582.097866192443	1137.558265508635	313.488038607013	642.196694032492	1210.754884784177	229.612337665076	592.310795539352	1123.116381394635	44.510137086956	559.581826811865	1285.465781620532	115.915581808760	604.195411858864	1205.662318635056	41.590561423800	635.377204461261	1409.349617922653	76.895943214998	631.707047709300	754.721840336477	38.265410337110	374.922840890061	833.858385173645	35.133526565926	299.915121003974	915.999693222593	95.501640625116	332.652996828045	1045.984396520688	40.687929976353	311.716740423319	1014.273462613281	1090.052177807869	153.104860143197	1255.142555568780	1011.815949040522	184.632877387671	938.521065916487	1114.756364203311	761.864921408083	939.572710296669	851.811740778143	772.239966589356	
73	46.034285714286	853.390924622040	1003.782128370513	462.516221571294	1068.162912962194	1425.699092381775	297.339374072583	1156.255028015589	1343.088855545325	460.090583256308	1070.251201252873	1422.492018724531	629.529790287231	1070.309751855304	1482.740339609795	447.815664484693	1071.466938894491	930.782425741899	589.377955761841	1071.859691519714	969.033554252071	294.807906806025	1141.656122719511	752.515838998085	569.794264769851	1082.115915627018	633.693325264090	634.504662425777	1174.258740076523	596.881005062022	558.554701831066	1198.869074945613	514.744755595199	571.422341178392	1078.116509577465	726.372723666277	344.301909368976	969.210371268767	631.023905671268	273.694633471659	1025.952229581355	537.116046870490	341.129987657235	1011.031308507988	467.667918047352	348.935378402957	974.826526881855	402.171958077704	336.867638309952	872.166253816763	304.728536966391	276.570993774847	896.419665490200	185.822010740825	347.776552789233	1186.475429525669	424.771994353287	582.079316377721	1132.853148385599	309.110995043327	640.767508176581	1206.324774161016	225.731400541370	590.768529227629	1117.803858019194	42.888726817753	556.388100213917	1280.666075793835	111.562411508061	601.511442807359	1199.652002473479	39.441712196464	632.986097914678	1403.868645094290	70.949403268497	630.280465261518	747.378340469286	38.834156440305	374.755747751582	826.619470349947	35.293522167322	299.882545986009	909.065880120128	95.356246102454	332.664823602965	1038.809045853577	40.489403926446	311.645873550662	1014.507765912661	1088.716326779918	156.813009637440	1256.944182661516	1016.546084922437	189.305798120391	939.493849584514	1112.498484134188	764.609892852775	944.461429879857	849.372186286467	772.451358911582	
74	46.046428571429	854.571728814075	1001.970786448406	466.272467809091	1066.894587126669	1424.731262624091	301.203909244638	1155.979706627842	1342.454598342343	463.626941447188	1070.084983591970	1421.304489140674	633.426317684128	1069.413778398726	1481.738668587322	451.708854345006	1073.098641450046	929.046085150928	592.512873571365	1070.723788735853	967.907637177803	297.356101296369	1142.210702705702	749.466394426841	573.522591991086	1079.813904859194	630.724057891781	635.404626629177	1172.458604747938	594.085756068945	560.296553667892	1194.592118401976	511.457319565844	571.544159493089	1079.582239830896	725.014250281765	346.621068797926	970.194773231928	629.584190564459	276.651657603161	1027.734743885982	535.361690391904	343.282005592362	1013.046328657232	464.990785947343	350.657861759471	974.608569003692	400.073029962145	338.762401542871	869.691577623112	305.160120879829	278.139812897958	891.625390775419	185.343544930966	348.434834048179	1182.729519821341	421.249738346652	581.929649404502	1128.386594902931	305.556184677098	639.673328544776	1201.404409690498	222.254173926497	589.303944094174	1110.882521554811	41.962277286184	553.753858724096	1274.581653909786	107.562584024390	598.961636922352	1192.129152012642	37.958323644753	631.085170697813	1397.036673256642	65.018276926802	628.977149186534	740.171405172800	40.235254740770	374.532755784633	819.492059927436	35.915607591981	299.834065297570	902.444375304327	95.337379838872	332.658807910604	1031.649607453340	40.164458792786	311.607913195517	1014.478728762488	1087.453014413462	160.817754446644	1258.290611292498	1020.850390686453	193.811996446141	941.178024997142	1109.967229347059	767.517038494490	950.295158587669	846.737078988559	772.743668367371	
